HIERARCHY
ROOT joint_Root
{
	OFFSET 0.0 0.0 0.0
	CHANNELS 6 Xposition Yposition Zposition Zrotation Xrotation Yrotation 
	JOINT Hips
	{
		OFFSET -0.726466 93.3139 -2.00062
		CHANNELS 6 Xposition Yposition Zposition Zrotation Xrotation Yrotation 
		JOINT Spine
		{
			OFFSET 15.7357 0.0 0.0
			CHANNELS 6 Xposition Yposition Zposition Zrotation Xrotation Yrotation 
			JOINT Chest
			{
				OFFSET 8.98455 -0.406207 0.0
				CHANNELS 6 Xposition Yposition Zposition Zrotation Xrotation Yrotation 
				JOINT Neck
				{
					OFFSET 16.3773 0.0 0.0
					CHANNELS 6 Xposition Yposition Zposition Zrotation Xrotation Yrotation 
					JOINT Head
					{
						OFFSET 6.45672 0.0 0.0
						CHANNELS 6 Xposition Yposition Zposition Zrotation Xrotation Yrotation 
						End Site
						{
							OFFSET 0.0 0.0 0.0
						}
					}
				}
				JOINT Shoulder_L
				{
					OFFSET 12.9942 -0.242716 4.98039
					CHANNELS 6 Xposition Yposition Zposition Zrotation Xrotation Yrotation 
					JOINT UpperArm_L
					{
						OFFSET 5.34809 0.0 0.0
						CHANNELS 6 Xposition Yposition Zposition Zrotation Xrotation Yrotation 
						JOINT LowerArm_L
						{
							OFFSET 24.3286 1.87007e-05 0.0
							CHANNELS 6 Xposition Yposition Zposition Zrotation Xrotation Yrotation 
							JOINT Hand_L
							{
								OFFSET 22.2916 0.0 0.0
								CHANNELS 6 Xposition Yposition Zposition Zrotation Xrotation Yrotation 
								End Site
								{
									OFFSET 0.0 0.0 0.0
								}
							}
						}
					}
				}
				JOINT Shoulder_R
				{
					OFFSET 12.9945 -0.242716 -4.98039
					CHANNELS 6 Xposition Yposition Zposition Zrotation Xrotation Yrotation 
					JOINT UpperArm_R
					{
						OFFSET -5.34813 0.0 0.0
						CHANNELS 6 Xposition Yposition Zposition Zrotation Xrotation Yrotation 
						JOINT LowerArm_R
						{
							OFFSET -24.3289 0.000322201 0.0
							CHANNELS 6 Xposition Yposition Zposition Zrotation Xrotation Yrotation 
							JOINT Hand_R
							{
								OFFSET -22.2915 -0.000108084 0.0
								CHANNELS 6 Xposition Yposition Zposition Zrotation Xrotation Yrotation 
								End Site
								{
									OFFSET 0.0 0.0 0.0
								}
							}
						}
					}
				}
			}
		}
		JOINT UpperLeg_L
		{
			OFFSET -2.19248 -6.46944 0.0
			CHANNELS 6 Xposition Yposition Zposition Zrotation Xrotation Yrotation 
			JOINT LowerLeg_L
			{
				OFFSET 39.0811 0.0 -1.23785e-05
				CHANNELS 6 Xposition Yposition Zposition Zrotation Xrotation Yrotation 
				JOINT Foot_L
				{
					OFFSET 40.9854 0.0 -1.26872e-05
					CHANNELS 6 Xposition Yposition Zposition Zrotation Xrotation Yrotation 
					JOINT Toes_L
					{
						OFFSET 11.7543 0.0 0.0
						CHANNELS 6 Xposition Yposition Zposition Zrotation Xrotation Yrotation 
						End Site
						{
							OFFSET 0.0 0.0 0.0
						}
					}
				}
			}
		}
		JOINT UpperLeg_R
		{
			OFFSET -2.19251 6.46944 0.0
			CHANNELS 6 Xposition Yposition Zposition Zrotation Xrotation Yrotation 
			JOINT LowerLeg_R
			{
				OFFSET -39.0811 -0.00228153 -0.0401928
				CHANNELS 6 Xposition Yposition Zposition Zrotation Xrotation Yrotation 
				JOINT Foot_R
				{
					OFFSET -40.9854 0.0 0.0
					CHANNELS 6 Xposition Yposition Zposition Zrotation Xrotation Yrotation 
					JOINT Toes_R
					{
						OFFSET -11.7543 0.0 0.0
						CHANNELS 6 Xposition Yposition Zposition Zrotation Xrotation Yrotation 
						End Site
						{
							OFFSET 0.0 0.0 0.0
						}
					}
				}
			}
		}
	}
}
MOTION
Frames:	6
Frame Time:	0.0333333
0.000000 0.000000 0.000000 0.000000 0.000000 -0.000000 -1.044120 91.746400 4.536220 88.109700 -0.606651 2.237260 15.735700 0.000005 -0.000001 68.147600 87.310400 -67.796200 8.984550 -0.406207 -0.000000 -2.767720 -2.033800 0.653914 16.377300 -0.000001 -0.000001 1.600430 -1.219200 0.100245 6.456720 -0.000001 -0.000000 4.917890 -0.383026 -0.203004 12.994200 -0.242716 4.980390 -90.203100 0.546853 -69.628700 5.348090 -0.000007 -0.000001 -66.334300 38.964400 -11.882600 24.328600 0.000019 0.000005 4.135160 7.000360 -30.676500 22.291600 -0.000001 0.000005 3.746290 5.611490 -12.054600 12.994500 -0.242716 -4.980390 88.015500 5.421810 -69.861300 -5.348130 -0.000001 -0.000004 -63.724800 36.731000 -9.591150 -24.328900 0.000322 -0.000009 0.458267 0.658419 -34.904800 -22.291500 -0.000108 -0.000004 7.149440 5.645970 -14.641600 -2.192480 -6.469440 -0.000000 -169.231000 -17.730000 -1.878080 39.081100 -0.000007 -0.000012 -0.216437 0.530836 22.182500 40.985400 -0.000006 -0.000013 -7.569630 -2.013410 -65.735000 11.754300 -0.000000 0.000003 -0.000216 -0.001973 -16.651800 -2.192510 6.469440 -0.000001 172.985000 21.192800 -178.210000 -39.081100 -0.002282 -0.040193 -0.087576 0.280150 17.976800 -40.985400 0.000008 0.000006 -6.059770 2.805050 -64.786600 -11.754300 -0.000006 -0.000006 -0.000315 -0.005137 -16.782400
0.000000 0.000000 0.000000 0.000000 0.000000 -0.000000 -1.025970 91.757300 4.453790 88.087600 -0.768758 2.208880 15.735700 0.000005 -0.000001 69.022300 87.275700 -68.600600 8.984550 -0.406207 -0.000000 -2.671800 -1.988340 0.797133 16.377300 -0.000001 -0.000001 1.371120 -1.193970 0.119779 6.456720 -0.000001 -0.000000 4.869950 -0.356016 -0.209917 12.994200 -0.242716 4.980390 -90.209500 0.561624 -69.542700 5.348090 -0.000007 -0.000001 -65.314100 38.008500 -12.621900 24.328600 0.000019 0.000005 4.562660 7.772770 -30.542800 22.291600 -0.000001 0.000005 3.867820 5.617750 -12.466400 12.994500 -0.242716 -4.980390 88.096700 5.182960 -69.803900 -5.348130 -0.000001 -0.000004 -62.299800 39.491900 -10.020600 -24.328900 0.000322 -0.000009 0.488127 0.650578 -36.944800 -22.291500 -0.000108 -0.000004 6.757590 5.643120 -14.390400 -2.192480 -6.469440 -0.000000 -169.241000 -17.827900 -1.934350 39.081100 -0.000007 -0.000012 -0.214382 0.525582 22.190600 40.985400 -0.000006 -0.000013 -7.549350 -2.061910 -65.705800 11.754300 -0.000000 0.000003 -0.000217 -0.001985 -16.652300 -2.192510 6.469440 -0.000001 173.044000 21.026600 -178.328000 -39.081100 -0.002282 -0.040193 -0.087389 0.279905 17.957100 -40.985400 0.000008 0.000006 -6.043970 2.834090 -64.707600 -11.754300 -0.000006 -0.000006 -0.000332 -0.005417 -16.793800
0.000000 0.000000 0.000000 0.000000 0.000000 -0.000000 -1.032310 91.779800 4.336050 88.060400 -0.890070 2.191360 15.735700 0.000005 -0.000001 69.247400 87.250000 -68.739700 8.984550 -0.406207 -0.000000 -2.614460 -1.994160 0.969926 16.377300 -0.000001 -0.000001 1.262340 -1.095260 0.051819 6.456720 -0.000001 -0.000000 4.700920 -0.335332 -0.063824 12.994200 -0.242716 4.980390 -90.207800 0.550740 -69.333400 5.348090 -0.000007 -0.000001 -63.329100 36.728900 -13.912600 24.328600 0.000019 0.000005 5.109580 8.776550 -30.371100 22.291600 -0.000001 0.000005 4.236690 5.622550 -12.796500 12.994500 -0.242716 -4.980390 88.214200 4.848410 -69.752000 -5.348130 -0.000001 -0.000004 -60.415400 42.945200 -10.220400 -24.328900 0.000322 -0.000009 0.659635 0.784453 -40.108900 -22.291500 -0.000108 -0.000004 6.627070 5.644780 -14.535600 -2.192480 -6.469440 -0.000000 -169.240000 -17.853200 -1.978160 39.081100 -0.000007 -0.000012 -0.213472 0.525077 22.124700 40.985400 -0.000006 -0.000013 -7.552210 -2.179300 -65.614200 11.754300 -0.000000 0.000003 -0.000206 -0.001902 -16.649200 -2.192510 6.469440 -0.000001 173.126000 20.965300 -178.438000 -39.081100 -0.002282 -0.040193 -0.086251 0.277258 17.904700 -40.985400 0.000008 0.000006 -6.003890 2.843970 -64.587200 -11.754300 -0.000006 -0.000006 -0.000273 -0.004477 -16.755600
0.000000 0.000000 0.000000 0.000000 0.000000 -0.000000 -1.037740 91.787600 4.239800 88.077900 -0.951091 2.181010 15.735700 0.000005 -0.000001 69.864800 87.229700 -69.264800 8.984550 -0.406207 -0.000000 -2.554230 -1.960620 1.156400 16.377300 -0.000001 -0.000001 1.123150 -1.046510 -0.003924 6.456720 -0.000001 -0.000000 4.546690 -0.312583 0.063991 12.994200 -0.242716 4.980390 -90.230300 0.605842 -69.185700 5.348090 -0.000007 -0.000001 -60.300000 34.824500 -15.801300 24.328600 0.000019 0.000005 5.557900 9.690810 -30.031200 22.291600 -0.000001 0.000005 4.866090 5.626710 -13.093900 12.994500 -0.242716 -4.980390 88.342600 4.456320 -69.574300 -5.348130 -0.000001 -0.000004 -58.167600 46.495900 -9.953640 -24.328900 0.000322 -0.000009 1.479560 1.490650 -44.813800 -22.291500 -0.000108 -0.000004 7.052530 5.645240 -14.576400 -2.192480 -6.469440 -0.000000 -169.286000 -17.901600 -2.058500 39.081100 -0.000007 -0.000012 -0.209771 0.515599 22.139200 40.985400 -0.000006 -0.000013 -7.532430 -2.216540 -65.558700 11.754300 -0.000000 0.000003 -0.000201 -0.001856 -16.647600 -2.192510 6.469440 -0.000001 173.147000 20.963000 -178.577000 -39.081100 -0.002282 -0.040193 -0.085759 0.274328 17.990500 -40.985400 0.000008 0.000006 -5.961120 2.885840 -64.558700 -11.754300 -0.000006 -0.000006 -0.000320 -0.005218 -16.785800
0.000000 0.000000 0.000000 0.000000 0.000000 -0.000000 -1.066880 91.810300 4.144780 88.072700 -0.965241 2.093490 15.735700 0.000005 -0.000001 69.719600 87.208500 -68.995000 8.984550 -0.406207 -0.000000 -2.516670 -1.999530 1.405440 16.377300 -0.000001 -0.000001 0.935078 -0.995285 -0.024177 6.456720 -0.000001 -0.000000 4.391940 -0.244009 0.175990 12.994200 -0.242716 4.980390 -90.231500 0.605221 -69.068700 5.348090 -0.000007 -0.000001 -57.118700 31.483500 -17.691300 24.328600 0.000019 0.000005 5.609480 9.982160 -29.536300 22.291600 -0.000001 0.000005 5.680240 5.628450 -13.221500 12.994500 -0.242716 -4.980390 88.507200 3.979070 -69.416300 -5.348130 -0.000001 -0.000004 -55.637400 49.761800 -9.292070 -24.328900 0.000322 -0.000009 4.178910 3.403830 -50.906400 -22.291500 -0.000108 -0.000004 6.844610 5.650900 -15.102400 -2.192480 -6.469440 -0.000000 -169.301000 -17.946500 -2.158700 39.081100 -0.000007 -0.000012 -0.209625 0.518185 22.025500 40.985400 -0.000006 -0.000013 -7.522600 -2.194440 -65.429700 11.754300 -0.000000 0.000003 -0.000225 -0.002046 -16.654500 -2.192510 6.469440 -0.000001 173.244000 20.893200 -178.714000 -39.081100 -0.002282 -0.040193 -0.084515 0.271716 17.914900 -40.985400 0.000008 0.000006 -5.932360 2.816460 -64.470300 -11.754300 -0.000006 -0.000006 -0.000406 -0.006573 -16.840800
0.000000 0.000000 0.000000 0.000000 0.000000 -0.000000 -1.090870 91.819600 4.048470 88.097700 -0.807361 2.067920 15.735700 0.000005 -0.000001 68.649100 87.155600 -67.795600 8.984550 -0.406207 -0.000000 -2.451810 -2.146590 1.661170 16.377300 -0.000001 -0.000001 0.779359 -1.013170 -0.009807 6.456720 -0.000001 -0.000000 4.241140 -0.110606 0.412546 12.994200 -0.242716 4.980390 -90.174600 0.456562 -69.068500 5.348090 -0.000007 -0.000001 -54.072500 26.901400 -19.455100 24.328600 0.000019 0.000005 5.396040 9.846180 -28.914900 22.291600 -0.000001 0.000005 6.849860 5.628850 -13.250800 12.994500 -0.242716 -4.980390 88.680100 3.458250 -69.094400 -5.348130 -0.000001 -0.000004 -52.998000 52.524100 -8.223000 -24.328900 0.000322 -0.000009 8.424620 5.303410 -58.034800 -22.291500 -0.000108 -0.000004 6.209000 5.658910 -15.935100 -2.192480 -6.469440 -0.000000 -169.357000 -17.799700 -2.296190 39.081100 -0.000007 -0.000012 -0.207806 0.514064 22.010900 40.985400 -0.000006 -0.000013 -7.512250 -2.203590 -65.337500 11.754300 -0.000000 0.000003 -0.000190 -0.001774 -16.644600 -2.192510 6.469440 -0.000001 173.282000 20.947500 -178.823000 -39.081100 -0.002282 -0.040193 -0.084147 0.269580 17.977000 -40.985400 0.000008 0.000006 -5.909230 2.696860 -64.466500 -11.754300 -0.000006 -0.000006 -0.000451 -0.007277 -16.869400
